<svg width="50" height="50" viewBox="0 0 50 50" fill="none" xmlns="http://www.w3.org/2000/svg">
<rect width="50" height="50" rx="7" transform="matrix(-1 0 0 1 50 0)" fill="#0669CC"/>
<rect width="36" height="36" rx="5" transform="matrix(-1 0 0 1 43 7)" fill="#0657A8"/>
<path fill-rule="evenodd" clip-rule="evenodd" d="M25 16C25.7101 16 26.2857 16.5756 26.2857 17.2857V23.7143H32.7143C33.4244 23.7143 34 24.2899 34 25C34 25.7101 33.4244 26.2857 32.7143 26.2857H26.2857V32.7143C26.2857 33.4244 25.7101 34 25 34C24.2899 34 23.7143 33.4244 23.7143 32.7143V26.2857H17.2857C16.5756 26.2857 16 25.7101 16 25C16 24.2899 16.5756 23.7143 17.2857 23.7143H23.7143V17.2857C23.7143 16.5756 24.2899 16 25 16Z" fill="#F5F5F5" fill-opacity="0.3"/>
</svg>
