<svg width="50" height="50" viewBox="0 0 50 50" fill="none" xmlns="http://www.w3.org/2000/svg">
<rect width="50" height="50" rx="7" transform="matrix(-1 0 0 1 50 0)" fill="#0A83FD"/>
<rect width="40" height="40" rx="5" transform="matrix(-1 0 0 1 45 5)" fill="#1474D5"/>
<rect width="36" height="36" rx="5" transform="matrix(-1 0 0 1 43 7)" fill="#0D78E4"/>
<path fill-rule="evenodd" clip-rule="evenodd" d="M25 14C25.8679 14 26.5714 14.7036 26.5714 15.5714V23.4286H34.4286C35.2964 23.4286 36 24.1321 36 25C36 25.8679 35.2964 26.5714 34.4286 26.5714H26.5714V34.4286C26.5714 35.2964 25.8679 36 25 36C24.1321 36 23.4286 35.2964 23.4286 34.4286V26.5714H15.5714C14.7036 26.5714 14 25.8679 14 25C14 24.1321 14.7036 23.4286 15.5714 23.4286H23.4286V15.5714C23.4286 14.7036 24.1321 14 25 14Z" fill="#F5F5F5"/>
</svg>
